<svg width="25" height="25" viewBox="0 0 25 25" fill="none" xmlns="http://www.w3.org/2000/svg">
<path d="M10.8225 19.24H13.2275V16.835H10.8225V19.24ZM12.025 0C5.3872 0 0 5.3872 0 12.025C0 18.6628 5.3872 24.05 12.025 24.05C18.6628 24.05 24.05 18.6628 24.05 12.025C24.05 5.3872 18.6628 0 12.025 0ZM12.025 21.645C6.72198 21.645 2.405 17.328 2.405 12.025C2.405 6.72198 6.72198 2.405 12.025 2.405C17.328 2.405 21.645 6.72198 21.645 12.025C21.645 17.328 17.328 21.645 12.025 21.645ZM12.025 4.81C9.36747 4.81 7.215 6.96247 7.215 9.62H9.62C9.62 8.29725 10.7022 7.215 12.025 7.215C13.3477 7.215 14.43 8.29725 14.43 9.62C14.43 12.025 10.8225 11.7244 10.8225 15.6325H13.2275C13.2275 12.9269 16.835 12.6263 16.835 9.62C16.835 6.96247 14.6825 4.81 12.025 4.81Z" fill="black"/>
</svg>
