<svg width="300" height="50" viewBox="0 0 300 50" fill="none" xmlns="http://www.w3.org/2000/svg">
<rect x="0.5" y="0.5" width="299" height="49" fill="#FFFFFA" stroke="#021718"/>
<path d="M37.1875 28.125H36.1012L35.7163 27.7537C37.0638 26.1862 37.875 24.1512 37.875 21.9375C37.875 17.0013 33.8737 13 28.9375 13C24.0013 13 20 17.0013 20 21.9375C20 26.8737 24.0013 30.875 28.9375 30.875C31.1512 30.875 33.1862 30.0638 34.7537 28.7163L35.125 29.1012V30.1875L42 37.0487L44.0487 35L37.1875 28.125ZM28.9375 28.125C25.5138 28.125 22.75 25.3612 22.75 21.9375C22.75 18.5138 25.5138 15.75 28.9375 15.75C32.3612 15.75 35.125 18.5138 35.125 21.9375C35.125 25.3612 32.3612 28.125 28.9375 28.125Z" fill="black"/>
</svg>
