<svg width="25" height="25" viewBox="0 0 25 25" fill="none" xmlns="http://www.w3.org/2000/svg">
<path d="M7.215 19.24C5.89225 19.24 4.82203 20.3223 4.82203 21.645C4.82203 22.9678 5.89225 24.05 7.215 24.05C8.53775 24.05 9.62 22.9678 9.62 21.645C9.62 20.3223 8.53775 19.24 7.215 19.24ZM0 0V2.405H2.405L6.734 11.532L5.11062 14.4781C4.91822 14.8148 4.81 15.2116 4.81 15.6325C4.81 16.9552 5.89225 18.0375 7.215 18.0375H21.645V15.6325H7.72005C7.5517 15.6325 7.41943 15.5002 7.41943 15.3319L7.4555 15.1876L8.53775 13.2275H17.4964C18.3983 13.2275 19.1919 12.7345 19.6007 11.9889L23.9057 4.1847C24.0019 4.01635 24.05 3.81192 24.05 3.6075C24.05 2.94613 23.5089 2.405 22.8475 2.405H5.06252L3.93217 0H0ZM19.24 19.24C17.9172 19.24 16.847 20.3223 16.847 21.645C16.847 22.9678 17.9172 24.05 19.24 24.05C20.5627 24.05 21.645 22.9678 21.645 21.645C21.645 20.3223 20.5627 19.24 19.24 19.24Z" fill="black"/>
</svg>
